<?xml version="1.0" encoding="UTF-8"?>
<svg version="1.1" xmlns="http://www.w3.org/2000/svg" width="40" height="40">
<path d="M0 0 C3.87712611 3.42099363 5.91092041 5.68282499 6.41796875 10.875 C6.51504648 13.14189621 6.61138995 15.40882398 6.70703125 17.67578125 C7.23415455 21.71049136 8.6454129 24.06744583 11.1640625 27.19140625 C12.125 28.875 12.125 28.875 11.7734375 31.08984375 C11.55945312 31.67894531 11.34546875 32.26804688 11.125 32.875 C10.28195313 32.90078125 9.43890625 32.9265625 8.5703125 32.953125 C7.47460938 33.00984375 6.37890625 33.0665625 5.25 33.125 C4.15945312 33.17140625 3.06890625 33.2178125 1.9453125 33.265625 C0.54925781 33.56726562 0.54925781 33.56726562 -0.875 33.875 C-2.18916522 35.79428466 -2.18916522 35.79428466 -2.875 37.875 C-5.64600394 39.26050197 -7.8084706 39.0627467 -10.875 38.875 C-13.875 36.875 -13.875 36.875 -14.875 33.875 C-18.835 33.545 -22.795 33.215 -26.875 32.875 C-27.875 28.875 -27.875 28.875 -26.9140625 27.19140625 C-26.44742187 26.61261719 -25.98078125 26.03382812 -25.5 25.4375 C-22.91678614 21.66530004 -22.50427912 18.7956835 -22.3125 14.25 C-22.07600096 8.72742788 -21.69351029 5.90564975 -17.875 1.875 C-12.93669485 -2.48232808 -5.91207767 -2.3134217 0 0 Z M-14.875 5.875 C-17.68830465 10.62851476 -18.27374971 14.87586587 -18.56640625 20.34765625 C-18.875 22.875 -18.875 22.875 -20.875 28.875 C-12.295 28.875 -3.715 28.875 5.125 28.875 C4.465 26.895 3.805 24.915 3.125 22.875 C2.65790194 19.3258532 2.3094315 15.77925194 1.98046875 12.21484375 C0.93364672 8.12793583 -0.65736094 6.53198983 -3.875 3.875 C-8.31721137 2.05255431 -11.02046788 3.19358635 -14.875 5.875 Z M-9.875 32.875 C-9.545 33.535 -9.215 34.195 -8.875 34.875 C-7.885 34.545 -6.895 34.215 -5.875 33.875 C-7.195 33.545 -8.515 33.215 -9.875 32.875 Z " fill="#b1b1b1" transform="translate(27.875,1.125)"/>
</svg>
